PathFileType	3	(X/Y/Z)	C:\Users\koon_\Desktop\
DataRate	CameraRate	NumFrames	NumMarkers	Units	OrigDataRate	OrigDataStartFrame	OrigNumFrames
100.0	100.0	9	27	mm	100.0	2521	5041	
Frame#	Time	get:LFHD			get:RFHD			get:LBHD			get:RBHD			get:C7			get:T10			get:CLAV			get:STRN			get:RBAK			get:LSHO			get:LUPA			get:LELB			get:LFRA			get:LWRA			get:LWRB			get:LFIN			get:RSHO			get:RUPA			get:RELB			get:RFRA			get:RWRA			get:RWRB			get:RFIN			get:LASI			get:RASI			get:LPSI			get:RPSI			
		X1	Y1	Z1	X2	Y2	Z2	X3	Y3	Z3	X4	Y4	Z4	X5	Y5	Z5	X6	Y6	Z6	X7	Y7	Z7	X8	Y8	Z8	X9	Y9	Z9	X10	Y10	Z10	X11	Y11	Z11	X12	Y12	Z12	X13	Y13	Z13	X14	Y14	Z14	X15	Y15	Z15	X16	Y16	Z16	X17	Y17	Z17	X18	Y18	Z18	X19	Y19	Z19	X20	Y20	Z20	X21	Y21	Z21	X22	Y22	Z22	X23	Y23	Z23	X24	Y24	Z24	X25	Y25	Z25	X26	Y26	Z26	X27	Y27	Z27	
2521	25.2	60.841591	1529.8522	-79.371857	-85.98262	1532.536	-71.903999	51.029869	1531.0005	-216.78412	-98.154892	1526.6517	-204.46986	-38.518669	1318.047	-259.46542	-14.204335	1114.1432	-273.50107	-11.956758	1247.2405	-62.343086	-2.8211529	1098.1133	-7.5966554	-126.14439	1242.2512	-267.73901	98.326675	1345.8915	-206.23627	222.01649	1356.1915	-111.39456	342.47427	1371.025	-63.906269	283.46048	1407.7698	-5.0108175	230.78851	1430.7366	157.29897	300.59164	1449.9248	165.33955	264.22925	1464.951	238.58578	-157.83266	1324.8243	-145.25011	-220.58823	1207.5083	-111.21194	-275.69751	995.0213	-133.59274	-224.73015	874.85089	-34.067715	-215.58733	779.31592	-4.6923203	-284.67206	789.01917	-31.800222	-260.53275	721.20959	25.545811	130.11765	889.85303	-72.231621	-164.3132	903.28357	-62.665127	30.922113	921.0462	-253.95477	-57.275322	919.21246	-255.35361
2522	25.21	61.189888	1529.3419	-79.49218	-85.583786	1532.5183	-71.851555	51.301159	1530.9055	-216.86398	-97.85675	1527.0673	-204.60216	-38.54464	1318.0271	-259.85516	-13.830989	1114.0958	-273.60025	-12.266857	1247.3579	-62.620045	-2.9194965	1098.3403	-7.7326546	-125.96971	1241.9923	-268.07239	97.81427	1346.2686	-206.39229	221.12102	1358.308	-111.72043	340.79141	1374.4971	-63.588158	280.96353	1411.0668	-5.3999515	226.97148	1434.6859	156.23854	296.42749	1454.491	164.86989	259.61987	1469.7123	237.96095	-158.04366	1324.6074	-145.83788	-220.67178	1207.2498	-111.79752	-275.48651	994.63934	-134.11763	-224.42282	874.59357	-34.146069	-215.22693	779.09991	-4.8540115	-284.22107	788.74249	-32.051006	-260.069	720.97479	25.370047	130.27428	889.90833	-72.149666	-164.11143	903.29315	-62.807171	31.175226	920.99548	-253.94102	-57.057652	919.15387	-255.35384
2523	25.22	61.555267	1528.8846	-79.548737	-85.186714	1532.5254	-71.81311	51.540131	1530.7786	-216.92963	-97.637062	1527.3937	-204.5475	-38.582584	1317.9495	-260.00177	-13.404153	1114.1332	-273.74707	-12.559201	1247.4896	-62.827042	-3.0449569	1098.5737	-7.7296185	-125.80648	1241.6781	-268.36301	97.262711	1346.6171	-206.5815	219.8132	1360.3744	-111.91966	339.12518	1377.8485	-63.384644	278.59775	1414.3866	-5.9154487	223.13625	1438.7261	154.82941	292.31378	1459.0886	164.29825	254.45795	1474.3566	236.73853	-158.25183	1324.3575	-146.25409	-220.76512	1206.9269	-112.39656	-275.27917	994.23651	-134.38979	-224.11847	874.37091	-34.773178	-214.75305	778.91193	-5.0178022	-283.29068	788.60468	-31.830799	-259.55185	720.80865	25.157312	130.42557	889.92828	-72.037346	-163.97665	903.3266	-62.940941	31.416048	920.88495	-253.88834	-56.809345	919.06866	-255.34901
2524	25.23	61.85955	1528.4816	-79.627327	-84.848793	1532.5165	-71.732552	51.779526	1530.6791	-217.00909	-97.414665	1527.6981	-204.57425	-38.578159	1317.9287	-260.28632	-13.040399	1114.1644	-273.93698	-12.931359	1247.585	-63.114681	-3.1604297	1098.7322	-7.7650394	-125.62029	1241.5364	-268.83716	96.732307	1346.9478	-206.73163	218.40898	1362.3461	-112.13248	337.54254	1381.2314	-63.309402	276.33603	1417.6722	-6.5742841	219.22351	1443.0004	153.20454	288.11676	1463.5962	163.48686	249.45146	1479.1519	235.478	-158.47238	1324.1675	-146.8519	-220.88005	1206.6385	-112.98537	-274.98355	993.85504	-134.80392	-223.81364	874.15033	-35.017292	-214.28467	778.74426	-5.3329978	-283.19876	788.16718	-32.479927	-259.0928	720.54108	24.839352	130.59314	889.97845	-71.913986	-163.83766	903.323	-63.150898	31.641651	920.81146	-253.83997	-56.49617	919.01471	-255.44441
2525	25.24	62.108227	1528.1093	-79.697617	-84.542534	1532.5402	-71.666245	51.974247	1530.5773	-217.00357	-97.197769	1527.9567	-204.51482	-38.593533	1317.8931	-260.46152	-12.687654	1114.1964	-274.02777	-13.239752	1247.7079	-63.260658	-3.2993407	1098.959	-7.7183275	-125.49014	1241.2977	-269.11877	96.215256	1347.2894	-206.81145	217.13773	1364.2556	-112.38535	336.02414	1384.6097	-63.309921	274.07007	1420.8857	-7.3802719	215.32549	1447.3292	151.43111	283.75781	1468.2148	162.29276	244.53519	1483.985	234.24779	-158.63887	1323.9955	-147.5168	-220.98921	1206.3492	-113.48594	-274.74896	993.48682	-135.25401	-223.47827	873.92194	-35.470726	-213.83896	778.5686	-5.6172733	-282.74115	787.84534	-32.849781	-258.54987	720.28479	24.572311	130.70975	889.98627	-71.822388	-163.64806	903.33533	-63.341946	31.950739	920.72339	-253.84468	-56.206936	918.93298	-255.42921
2526	25.25	62.384743	1527.7953	-79.712143	-84.263779	1532.5167	-71.611679	52.159794	1530.4658	-217.011	-96.986107	1528.1835	-204.48421	-38.5937	1317.8643	-260.67459	-12.292965	1114.2412	-274.08902	-13.54673	1247.7919	-63.394623	-3.4805536	1099.1088	-7.6890168	-125.32483	1241.144	-269.45361	95.747978	1347.5994	-206.9368	215.75215	1366.118	-112.73151	334.42664	1388.0143	-63.465675	271.82486	1424.2146	-8.4327765	211.17177	1451.7289	149.49554	279.55597	1472.6207	161.44374	239.11362	1488.7874	232.35657	-158.8163	1323.8286	-147.89459	-221.07796	1206.103	-113.96835	-274.51883	993.21088	-135.85309	-223.16809	873.69556	-35.685482	-213.36536	778.39838	-5.9771729	-282.29153	787.53247	-33.217278	-258.03064	720.06897	24.256948	130.85359	890.01764	-71.712471	-163.54308	903.35632	-63.528343	32.252319	920.72986	-253.88264	-55.957588	918.8288	-255.41052
2527	25.26	62.597691	1527.5142	-79.687233	-84.057304	1532.5203	-71.586868	52.33461	1530.3835	-217.01103	-96.803207	1528.4139	-204.49133	-38.567478	1317.8655	-260.7934	-11.930848	1114.2655	-274.09018	-13.821569	1247.9252	-63.4804	-3.6704257	1099.3197	-7.6449347	-125.12443	1240.9819	-269.67953	95.263229	1347.8983	-207.04512	214.45155	1368.0322	-113.11799	332.85205	1391.4133	-63.670017	269.68143	1427.4792	-9.705637	206.85754	1456.0939	147.37865	275.09973	1477.2489	160.16187	233.80476	1493.6685	230.571	-158.8656	1323.5909	-148.37297	-221.16376	1205.859	-114.41604	-274.2905	992.88293	-136.35863	-222.86838	873.53369	-35.377525	-212.93332	778.22089	-6.3038311	-281.84924	787.25146	-33.678982	-257.46432	719.85632	23.870008	130.97903	890.02917	-71.614502	-163.44353	903.38263	-63.747921	32.541916	920.63696	-253.78838	-55.640877	918.82202	-255.49173
2528	25.27	62.783836	1527.2396	-79.649185	-83.888748	1532.4994	-71.551537	52.508419	1530.3243	-217.01184	-96.618652	1528.5804	-204.45593	-38.54467	1317.8901	-260.99411	-11.576215	1114.2715	-274.08905	-14.085132	1247.9987	-63.547855	-3.8342433	1099.4598	-7.6639328	-124.955	1240.8629	-269.89209	94.789406	1348.1952	-207.13799	213.16426	1369.8851	-113.6293	331.18744	1394.8005	-63.991302	267.43515	1430.7894	-10.976056	201.49585	1460.1917	147.55176	270.56311	1481.9563	158.68266	228.25281	1498.6514	228.49051	-159.06203	1323.4771	-148.343	-221.20766	1205.6415	-114.74621	-274.10928	992.60455	-136.76817	-222.53961	873.35797	-35.869785	-212.47446	778.04364	-6.5557985	-281.42462	786.93951	-34.129955	-256.92218	719.68195	23.533163	131.08688	890.03821	-71.463783	-163.35135	903.40161	-63.989758	32.849548	920.59637	-253.69421	-55.315712	918.80377	-255.58957
2529	25.28	62.963463	1527.025	-79.581535	-83.730293	1532.4866	-71.465019	52.682522	1530.2776	-216.92615	-96.458206	1528.684	-204.2122	-38.551304	1317.868	-261.03934	-11.2552	1114.3213	-274.08856	-14.344239	1248.0865	-63.651318	-4.0020461	1099.6428	-7.5950847	-124.80608	1240.79	-270.18643	94.355049	1348.4753	-207.17799	211.84096	1371.7637	-114.15608	329.83511	1398.2939	-64.320808	264.6792	1434.2831	-11.734776	198.51907	1465.2413	141.97537	265.98969	1486.7874	157.11302	222.4391	1503.6353	226.23613	-159.16194	1323.4089	-148.80875	-221.27116	1205.4585	-115.21437	-273.9248	992.40198	-137.35431	-222.21191	873.17902	-36.437595	-212.01503	777.88977	-6.8749638	-280.95917	786.70917	-34.570282	-256.38098	719.43243	23.038116	131.18742	890.07562	-71.365028	-163.20921	903.38037	-64.237595	33.204685	920.61908	-253.70201	-54.963238	918.81232	-255.61436
